<?xml version="1.0" standalone="no"?><!DOCTYPE svg PUBLIC "-//W3C//DTD SVG 1.1//EN" "http://www.w3.org/Graphics/SVG/1.1/DTD/svg11.dtd"><svg t="1744296987255" class="icon" viewBox="0 0 1024 1024" version="1.1" xmlns="http://www.w3.org/2000/svg" p-id="23595" xmlns:xlink="http://www.w3.org/1999/xlink" width="200" height="200"><path d="M0.000213 512c0 62.656 11.264 122.645333 31.829334 178.112L512.000213 712.384l480.170667-22.272A510.848 510.848 0 0 0 1024.000213 512c0-62.634667-11.264-122.624-31.829333-178.090667L512.000213 311.658667 31.829547 333.930667A511.232 511.232 0 0 0 0.000213 512z" fill="#F0F0F0" p-id="23596"></path><path d="M512.000213 0C291.840213 0 104.192213 138.965333 31.829547 333.952h960.341333C919.808213 138.944 732.160213 0 512.000213 0z" fill="#C72A31" p-id="23597"></path><path d="M992.17088 690.112H31.829547C104.192213 885.098667 291.840213 1024 512.000213 1024c220.16 0 407.808-138.922667 480.170667-333.909333z" fill="#78A251" p-id="23598"></path></svg>