<?xml version="1.0" standalone="no"?><!DOCTYPE svg PUBLIC "-//W3C//DTD SVG 1.1//EN" "http://www.w3.org/Graphics/SVG/1.1/DTD/svg11.dtd"><svg t="1744296859524" class="icon" viewBox="0 0 1070 1024" version="1.1" xmlns="http://www.w3.org/2000/svg" p-id="7219" xmlns:xlink="http://www.w3.org/1999/xlink" width="208.984375" height="200"><path d="M46.173091 512c0 282.763636 229.236364 512 512 512s512-229.236364 512-512-229.236364-512-512-512-512 229.236364-512 512z" fill="#338AF3" p-id="7220"></path><path d="M847.592727 517.585455H268.753455c0 39.936 34.816 72.331636 74.752 72.331636H341.178182c0 39.982545 32.442182 72.378182 72.378182 72.378182 0 39.889455 32.349091 72.285091 72.285091 72.285091h144.756363c39.936 0 72.285091-32.395636 72.285091-72.285091 40.029091 0 72.378182-32.442182 72.378182-72.378182h-2.373818c39.936 0 74.752-32.395636 74.752-72.378182z" fill="#FFDA44" p-id="7221"></path><path d="M758.551273 422.958545a200.378182 200.378182 0 1 1-400.756364 0" fill="#338AF3" p-id="7222"></path><path d="M711.214545 422.958545l-62.55709 29.416728 33.28 60.555636-67.816728-13.032727-8.657454 68.608-47.290182-50.408727-47.290182 50.408727-8.610909-68.561455-67.956364 13.032728 33.326546-60.648728-62.510546-29.370182 62.557091-29.463272-33.28-60.509091 67.816728 13.032727 8.657454-68.654545 47.290182 50.501818 47.290182-50.548364 8.610909 68.608 67.956363-13.032727-33.326545 60.602182 62.510545 29.463272z" fill="#FFDA44" p-id="7223"></path></svg>