<?xml version="1.0" standalone="no"?><!DOCTYPE svg PUBLIC "-//W3C//DTD SVG 1.1//EN" "http://www.w3.org/Graphics/SVG/1.1/DTD/svg11.dtd"><svg t="1744296971673" class="icon" viewBox="0 0 1024 1024" version="1.1" xmlns="http://www.w3.org/2000/svg" p-id="21330" xmlns:xlink="http://www.w3.org/1999/xlink" width="200" height="200"><path d="M992.93888 688C921.173547 884.053333 732.928213 1024 512.000213 1024S102.82688 884.053333 31.061547 688h961.877333z" fill="#DB1F00" p-id="21331"></path><path d="M992.93888 336A510.976 510.976 0 0 1 1024.000213 512c0 61.866667-10.965333 121.130667-31.061333 176H31.061547A510.997333 510.997333 0 0 1 0.000213 512c0-61.824 10.965333-121.109333 31.061334-176h961.877333z" fill="#F0F0F0" p-id="21332"></path><path d="M512.000213 0c220.928 0 409.173333 139.946667 480.96 336H31.040213C102.82688 139.946667 291.093547 0 512.000213 0z" fill="#DB1F00" p-id="21333"></path></svg>