<?xml version="1.0" standalone="no"?><!DOCTYPE svg PUBLIC "-//W3C//DTD SVG 1.1//EN" "http://www.w3.org/Graphics/SVG/1.1/DTD/svg11.dtd"><svg t="1744296894616" class="icon" viewBox="0 0 1024 1024" version="1.1" xmlns="http://www.w3.org/2000/svg" p-id="9592" xmlns:xlink="http://www.w3.org/1999/xlink" width="200" height="200"><path d="M990.834008 327.51417H37.311741C107.789474 136.809717 294.348178 0 514.072874 0c215.578947 0 402.137652 136.809717 476.761134 327.51417z" fill="" p-id="9593"></path><path d="M999.125506 675.757085c-70.477733 203.1417-261.182186 348.242915-485.052632 348.242915-182.412955 0-339.951417-91.206478-431.157894-232.161943-24.874494-37.311741-41.45749-74.623482-53.894737-116.080972h970.105263z" fill="#FFCE00" p-id="9594"></path><path d="M1024 509.927126c0 58.040486-8.291498 111.935223-29.020243 165.829959H29.020243c-20.728745-53.894737-29.020243-107.789474-29.020243-165.829959 0-66.331984 12.437247-128.518219 33.165992-186.558705h953.522267c24.874494 62.186235 37.311741 124.37247 37.311741 186.558705z" fill="#DD0000" p-id="9595"></path></svg>