<?xml version="1.0" standalone="no"?><!DOCTYPE svg PUBLIC "-//W3C//DTD SVG 1.1//EN" "http://www.w3.org/Graphics/SVG/1.1/DTD/svg11.dtd"><svg t="1744296995591" class="icon" viewBox="0 0 1024 1024" version="1.1" xmlns="http://www.w3.org/2000/svg" p-id="24810" xmlns:xlink="http://www.w3.org/1999/xlink" width="200" height="200"><path d="M992.939093 688C921.17376 884.053333 732.928427 1024 512.000427 1024S102.827093 884.053333 31.06176 688h961.877333z" fill="#CC303C" p-id="24811"></path><path d="M992.939093 336A511.018667 511.018667 0 0 1 1024.000427 512c0 61.866667-10.965333 121.109333-31.04 176H31.040427A511.018667 511.018667 0 0 1 0.000427 512c0-61.845333 10.965333-121.109333 31.061333-176h961.877333z" fill="#0053A3" p-id="24812"></path><path d="M512.000427 0c220.928 0 409.173333 139.946667 480.96 336H31.040427C102.827093 139.946667 291.09376 0 512.000427 0z" fill="#F9F9F9" p-id="24813"></path><path d="M506.496427 846.357333c-62.08-22.656-124.48-67.754667-171.2-123.733333-48.768-58.453333-76.650667-123.136-78.506667-182.122667-3.413333-108.309333 5.44-303.04 5.504-305.002666l0.533333-11.498667h494.656l0.853334 11.157333c0.64 8.362667 15.36 206.272 7.232 316.8-4.138667 56.256-31.808 117.034667-77.952 171.157334-45.866667 53.845333-107.072 97.6-172.288 123.157333l-4.394667 1.728-4.437333-1.642667z" fill="#CC303C" p-id="24814"></path><path d="M749.355093 232.32s15.616 206.357333 7.36 318.506667c-8.256 112.128-112.874667 235.029333-245.930666 287.082666-125.717333-45.76-241.322667-178.56-245.098667-298.176-3.456-110.293333 5.610667-307.413333 5.610667-307.413333h478.08z m23.125334-24.32H247.488427l-1.066667 23.232c-0.384 8.106667-9.066667 199.317333-5.610667 309.269333 1.962667 62.293333 31.232 130.261333 82.432 191.445334 49.429333 59.050667 112.938667 104.768 178.858667 128.768l9.002667 3.285333 8.917333-3.477333c67.989333-26.602667 131.776-72.064 179.584-128 48.426667-56.64 77.525333-120.554667 81.898667-179.925334 8.32-112.618667-6.698667-313.514667-7.338667-322.026666L772.480427 208z" fill="#FFFFFF" p-id="24815"></path><path d="M497.87776 639.957333v-128.32c-1.813333-0.085333-3.669333-0.213333-5.525333-0.213333-9.984 0-20.010667-0.192-29.973334 0.042667-10.794667 0.234667-21.546667 0.533333-32.277333 1.536-3.690667 0.298667-7.36 1.429333-11.114667 1.152-3.84-0.256-7.466667 1.002667-11.050666 1.706666-6.464 1.216-13.077333 1.941333-19.52 3.562667-6.4 1.6-12.714667 3.285333-19.072 4.949333-0.384 0.085333-0.704 0.426667-1.344 0.917334v-70.4c2.005333 0.32 3.84 0.490667 5.546666 0.96 7.04 1.92 14.122667 3.498667 21.248 4.992 6.464 1.344 13.226667 1.472 19.456 3.882666 0.213333 0.085333 0.490667 0 0.746667 0.021334 6.869333 0.448 13.866667 0.277333 20.544 1.493333 10.304 1.92 20.586667 0.981333 30.869333 1.194667 10.24 0.213333 20.48 0.042667 30.72 0.042666 1.024-5.546667 1.344-45.013333 0.426667-61.610666a299.776 299.776 0 0 0-103.210667 13.226666c-1.621333-7.488 1.877333-15.018667 1.28-22.762666a174.442667 174.442667 0 0 1-0.021333-24.725334c0.512-7.850667-1.984-15.488-1.578667-23.274666 33.344 9.664 66.986667 14.933333 102.357334 13.141333 0-3.328 0.128-6.933333-0.042667-10.496-0.149333-3.285333 0.981333-6.72-1.386667-9.770667-0.341333-0.448 0-1.344-0.064-2.026666-0.469333-5.973333-0.896-11.989333-1.493333-17.984-0.192-1.898667-1.109333-3.712-1.365333-5.589334-0.277333-1.962667-1.024-3.946667-1.194667-5.653333-0.384-3.52-1.130667-6.933333-1.749333-10.410667-0.64-3.648-0.277333-7.68-1.728-11.008-1.066667-2.453333-0.170667-5.184-1.429334-6.933333-1.6-2.218667-0.874667-4.309333-1.301333-6.4-0.170667-0.789333-0.853333-1.450667-1.685333-2.773333 7.552 0 15.04-1.109333 21.952 0.256 8.682667 1.770667 17.194667 0.384 25.749333 1.109333 7.701333-2.773333 15.701333-0.64 24.298667-1.6-0.554667 3.925333 0 8.042667-1.813334 10.965333-1.92 3.093333-0.469333 6.336-2.346666 9.450667-1.834667 3.008-1.194667 7.253333-1.792 10.965333-0.32 2.112-0.981333 4.181333-1.429334 6.272-0.405333 1.92 0.896 4.138667-1.28 5.717334-0.256 0.213333-0.149333 0.853333-0.192 1.28-0.469333 5.76-0.853333 11.541333-1.536 17.28-0.362667 3.050667-1.749333 5.866667-1.493333 9.066666a20.074667 20.074667 0 0 1-1.152 9.130667c-1.002667 2.624-0.213333 5.845333-0.213333 8.789333 8.618667 1.066667 31.146667 0.362667 35.306666-0.149333 11.52-1.408 23.104-2.197333 34.56-4.586667a342.186667 342.186667 0 0 0 32.277334-8.042666v70.869333a61.013333 61.013333 0 0 0-9.173334-2.837333c-3.2-0.746667-6.336-2.112-9.813333-2.56-3.093333-0.362667-6.037333-2.432-9.045333-2.432-3.669333 0-6.848-1.621333-10.368-1.536-3.541333 0.064-6.634667-2.069333-10.389334-1.493334-3.456 0.554667-6.634667-1.728-10.346666-1.450666-3.392 0.277333-6.890667-0.917333-10.368-1.173334-3.392-0.213333-6.826667-0.042667-10.24-0.042666h-22.122667v61.589333c1.536 0.064 3.392 0.213333 5.226667 0.213333 11.690667 0 23.424-0.384 35.093333 0.128 10.133333 0.448 20.010667-1.792 30.101333-1.706666 3.562667 0 7.616-0.426667 11.008-1.408 3.584-1.002667 7.210667-0.256 10.410667-1.237334 8.874667-2.709333 18.389333-2.88 27.114667-6.442666 3.114667-1.28 6.997333-1.493333 10.901333-3.157334-0.576 6.122667 1.429333 12.096-1.344 17.984-0.554667 1.130667-0.085333 2.709333-0.085333 4.074667 0 9.386667-0.128 18.773333 0.064 28.16 0.064 3.477333 1.088 6.933333 1.322666 10.432 0.256 3.413333 0.064 6.848 0.064 10.432-9.685333-2.282667-19.072-5.12-28.906666-6.570667-5.674667-0.853333-11.328-2.026667-17.045334-2.858666-4.224-0.597333-8.533333-0.341333-12.544-1.28-5.461333-1.28-11.029333-0.298667-16.213333-1.365334-10.56-2.218667-21.098667-0.746667-31.616-1.130666-7.765333-0.32-15.573333-0.085333-23.829333-0.085334V640c-14.570667-0.042667-29.184-0.042667-43.797334-0.042667z" fill="#FFFFFF" p-id="24816"></path><path d="M703.787093 677.952c-5.354667-22.613333-56.277333-85.973333-117.909333-19.050667-48.213333-96.618667-108.48-82.56-151.36 3.52-57.514667-68.352-96.042667-17.664-114.517333 17.408 44.757333 74.325333 116.437333 138.581333 191.829333 168.170667 79.445333-33.493333 148.437333-94.890667 191.786667-164.544a13.226667 13.226667 0 0 0 0.170666-5.504z" fill="#0D4EA1" p-id="24817"></path></svg>