<?xml version="1.0" standalone="no"?><!DOCTYPE svg PUBLIC "-//W3C//DTD SVG 1.1//EN" "http://www.w3.org/Graphics/SVG/1.1/DTD/svg11.dtd"><svg t="1744296954265" class="icon" viewBox="0 0 1024 1024" version="1.1" xmlns="http://www.w3.org/2000/svg" p-id="18918" xmlns:xlink="http://www.w3.org/1999/xlink" width="200" height="200"><path d="M690.111569 31.82974A510.997014 510.997014 0 0 0 511.99968 0.000427a510.719681 510.719681 0 0 0-178.047889 31.829313L289.429152 512.000107l44.543973 480.149033A510.613014 510.613014 0 0 0 511.99968 1023.999787c62.613294 0 122.645257-11.30666 178.090555-31.87198L734.634208 512.000107 690.132902 31.82974z" fill="#FFDA44" p-id="18919"></path><path d="M1023.99936 512.000107c0-220.159862-138.943913-407.850412-333.866458-480.170367v960.298067C885.055447 919.807852 1023.99936 732.117302 1023.99936 512.000107z" fill="#D80027" p-id="18920"></path><path d="M0.021333 512.000107c0 220.117196 138.965246 407.829078 333.930458 480.1277V31.82974C138.98658 104.149695 0 291.840244 0 512.000107z" fill="#000000" p-id="18921"></path></svg>